<svg width="40" height="40" viewBox="0 0 40 40" fill="none" xmlns="http://www.w3.org/2000/svg">
<path d="M32.25 4H11C9.67519 4.00412 8.40581 4.53223 7.46901 5.46901C6.53223 6.40581 6.00412 7.67519 6 9V35.25C6 35.5815 6.1317 35.8995 6.36611 36.1339C6.60054 36.3682 6.91848 36.5 7.25 36.5H29.75C30.0815 36.5 30.3995 36.3682 30.6339 36.1339C30.8682 35.8995 31 35.5815 31 35.25C31 34.9185 30.8682 34.6005 30.6339 34.3661C30.3995 34.1318 30.0815 34 29.75 34H8.5C8.5 33.337 8.76339 32.7011 9.23224 32.2323C9.70108 31.7634 10.337 31.5 11 31.5H32.25C32.5815 31.5 32.8995 31.3682 33.1339 31.1339C33.3682 30.8995 33.5 30.5815 33.5 30.25V5.25C33.5 4.91848 33.3682 4.60054 33.1339 4.36611C32.8995 4.1317 32.5815 4 32.25 4ZM28.5 19L24.5 16C24.3929 15.9164 24.2609 15.871 24.125 15.871C23.9891 15.871 23.8571 15.9164 23.75 16L19.75 19V6.5H28.5V19Z" fill="#B1B1B1"/>
</svg>
