<svg width="40" height="40" viewBox="0 0 40 40" fill="none" xmlns="http://www.w3.org/2000/svg">
<path d="M15.1098 14.2486C15.107 14.6506 15.1278 15.0524 15.1723 15.4518L3.48487 31.3893C3.13091 31.8714 2.96149 32.4644 3.00737 33.0606C3.05323 33.6569 3.31134 34.217 3.73487 34.6393L5.96924 36.8736C6.39151 37.2971 6.95159 37.5553 7.54789 37.6011C8.14419 37.647 8.73718 37.4776 9.21924 37.1236L25.1567 25.4361C25.5562 25.4808 25.958 25.5016 26.3598 25.4986C28.6562 25.4989 30.8975 24.7954 32.7817 23.483C32.856 23.4303 32.9178 23.3619 32.9628 23.2828C33.008 23.2035 33.0351 23.1155 33.0426 23.0246C33.0501 22.9339 33.0376 22.8425 33.006 22.757C32.9745 22.6716 32.9246 22.5941 32.8598 22.5299L18.0786 7.74865C18.0145 7.68398 17.937 7.63411 17.8515 7.60255C17.766 7.57099 17.6747 7.5585 17.5838 7.56594C17.4931 7.57338 17.405 7.60059 17.3258 7.64564C17.2466 7.6907 17.1783 7.75253 17.1255 7.82678C15.8131 9.7111 15.1096 11.9523 15.1098 14.2486ZM17.8755 24.5143L14.7505 27.6393C14.5116 27.8703 14.1922 27.9995 13.8598 27.9995C13.5275 27.9995 13.2082 27.8703 12.9692 27.6393C12.7345 27.4023 12.6028 27.0823 12.6028 26.7486C12.6028 26.4151 12.7345 26.095 12.9692 25.858L16.0942 22.733C16.3371 22.5338 16.6455 22.4319 16.9592 22.4473C17.2731 22.4626 17.57 22.5943 17.7921 22.8164C18.0143 23.0386 18.1458 23.3355 18.1613 23.6493C18.1767 23.9631 18.0748 24.2714 17.8755 24.5143ZM37.5942 13.6236C37.7325 16.13 37.0283 18.6105 35.5942 20.6705C35.5415 20.7448 35.4731 20.8066 35.394 20.8516C35.3147 20.8968 35.2267 20.9239 35.1358 20.9314C35.0451 20.9389 34.9537 20.9264 34.8683 20.8948C34.7828 20.8633 34.7053 20.8134 34.6411 20.7486L19.8598 5.9674C19.7952 5.90324 19.7453 5.82571 19.7137 5.74025C19.6822 5.65479 19.6697 5.56346 19.6772 5.47266C19.6846 5.38186 19.7118 5.29379 19.7568 5.21461C19.802 5.13543 19.8637 5.06705 19.938 5.01428C21.5815 3.8712 23.5002 3.18738 25.4961 3.03335C27.4921 2.87933 29.493 3.26069 31.2923 4.13809C33.0917 5.01548 34.6245 6.35713 35.7322 8.02458C36.84 9.69201 37.4828 11.6249 37.5942 13.6236Z" fill="#017CFF"/>
</svg>
