<svg width="40" height="40" viewBox="0 0 40 40" fill="none" xmlns="http://www.w3.org/2000/svg">
<path d="M32.75 9.75005H28.4219L26.2969 6.56255C26.1838 6.38828 26.0286 6.24535 25.8456 6.14703C25.6626 6.0487 25.4578 5.99815 25.25 6.00005H15.25C15.0422 5.99815 14.8374 6.0487 14.6544 6.14703C14.4714 6.24535 14.3163 6.38828 14.2031 6.56255L12.0781 9.75005H7.75C6.7567 9.75416 5.80526 10.1506 5.10289 10.853C4.40052 11.5553 4.00411 12.5068 4 13.5V31C4.00411 31.9934 4.40052 32.9448 5.10289 33.6471C5.80526 34.3495 6.7567 34.746 7.75 34.75H32.75C33.7432 34.746 34.6947 34.3495 35.3971 33.6471C36.0995 32.9448 36.4959 31.9934 36.5 31V13.5C36.4959 12.5068 36.0995 11.5553 35.3971 10.853C34.6947 10.1506 33.7432 9.75416 32.75 9.75005ZM25.5469 26.9219C24.8527 27.6201 24.0275 28.1743 23.1184 28.5524C22.2094 28.9305 21.2345 29.1253 20.25 29.1253C19.2655 29.1253 18.2906 28.9305 17.3816 28.5524C16.4725 28.1743 15.6473 27.6201 14.9531 26.9219H14.9375L14.2031 26.1563L13.9844 27.4531C13.9333 27.7444 13.7819 28.0085 13.5564 28.1998C13.3309 28.391 13.0456 28.4973 12.75 28.5H12.5469C12.3847 28.4735 12.2294 28.4153 12.0898 28.3286C11.9502 28.242 11.829 28.1286 11.7332 27.9951C11.6374 27.8616 11.5689 27.7105 11.5316 27.5505C11.4942 27.3905 11.4888 27.2246 11.5156 27.0625L12.1406 23.3125C12.1852 23.0553 12.3082 22.8181 12.4928 22.6335C12.6774 22.4489 12.9146 22.3259 13.1719 22.2812L16.9219 21.6563C17.2492 21.6024 17.5846 21.6809 17.8542 21.8743C18.1237 22.0676 18.3055 22.3601 18.3594 22.6875C18.4132 23.0149 18.3349 23.3503 18.1415 23.6199C17.9481 23.8895 17.6555 24.0711 17.3281 24.125L15.9219 24.3594L16.7188 25.1875C17.6597 26.1143 18.9292 26.6311 20.25 26.625C20.9069 26.6283 21.5576 26.5 22.1641 26.2478C22.7706 25.9955 23.3204 25.6244 23.7812 25.1563C24.0156 24.9225 24.3331 24.7913 24.664 24.7913C24.995 24.7913 25.3125 24.9225 25.5469 25.1563C25.6645 25.2713 25.758 25.4086 25.8219 25.5602C25.8856 25.7118 25.9185 25.8746 25.9185 26.0391C25.9185 26.2036 25.8856 26.3664 25.8219 26.518C25.758 26.6696 25.6645 26.807 25.5469 26.9219ZM28.9844 16.2031L28.3594 19.9531C28.3149 20.2105 28.1919 20.4476 28.0072 20.6323C27.8226 20.8169 27.5854 20.9399 27.3281 20.9844L23.5781 21.6094H23.375C23.0794 21.6066 22.7941 21.5004 22.5686 21.3091C22.3431 21.1179 22.1918 20.8538 22.1406 20.5625C22.1139 20.4004 22.1192 20.2346 22.1566 20.0746C22.1939 19.9146 22.2624 19.7635 22.3582 19.63C22.454 19.4965 22.5751 19.3831 22.7148 19.2965C22.8544 19.2099 23.0098 19.1516 23.1719 19.125L24.5781 18.8906L23.7812 18.0625C22.8403 17.1358 21.5707 16.619 20.25 16.625C19.5931 16.6219 18.9424 16.7501 18.3359 17.0024C17.7294 17.2546 17.1796 17.6258 16.7188 18.0938C16.4844 18.3276 16.1669 18.4589 15.836 18.4589C15.505 18.4589 15.1875 18.3276 14.9531 18.0938C14.8355 17.9789 14.742 17.8415 14.6782 17.6899C14.6144 17.5383 14.5815 17.3755 14.5815 17.211C14.5815 17.0465 14.6144 16.8836 14.6782 16.7321C14.742 16.5805 14.8355 16.4431 14.9531 16.3281C15.6473 15.6299 16.4725 15.0758 17.3816 14.6978C18.2906 14.3196 19.2655 14.1249 20.25 14.1249C21.2345 14.1249 22.2094 14.3196 23.1184 14.6978C24.0275 15.0758 24.8527 15.6299 25.5469 16.3281C25.5625 16.3281 25.5625 16.3281 25.5625 16.3438L26.2969 17.0938L26.5156 15.7969C26.5695 15.4695 26.7512 15.177 27.0207 14.9836C27.2904 14.7903 27.6257 14.7118 27.9531 14.7656C28.2805 14.8195 28.5731 15.0013 28.7665 15.2709C28.9599 15.5404 29.0382 15.8758 28.9844 16.2031Z" fill="#87CDFF"/>
</svg>
