<svg width="40" height="40" viewBox="0 0 40 40" fill="none" xmlns="http://www.w3.org/2000/svg">
<path d="M35.5 31.0073L29.0312 6.85112C28.8592 6.21092 28.4399 5.66528 27.8656 5.33417C27.2913 5.00307 26.609 4.91362 25.9688 5.0855L21.1406 6.38237L20.9844 6.42925C20.7515 6.12373 20.4513 5.876 20.1071 5.70528C19.763 5.53457 19.3841 5.44546 19 5.44487H14C13.5601 5.44606 13.1286 5.56473 12.75 5.78862C12.3714 5.56473 11.9399 5.44606 11.5 5.44487H6.5C5.83696 5.44487 5.20108 5.70826 4.73224 6.17711C4.26339 6.64595 4 7.28183 4 7.94487V32.9448C4 33.6079 4.26339 34.2438 4.73224 34.7127C5.20108 35.1814 5.83696 35.4448 6.5 35.4448H11.5C11.9399 35.4437 12.3714 35.3251 12.75 35.1011C13.1286 35.3251 13.5601 35.4437 14 35.4448H19C19.663 35.4448 20.2989 35.1814 20.7677 34.7127C21.2366 34.2438 21.5 33.6079 21.5 32.9448V17.3823L25.8438 33.5854C25.9853 34.1194 26.2997 34.5914 26.7379 34.9278C27.176 35.2642 27.7133 35.4461 28.2656 35.4448C28.4813 35.4411 28.696 35.4149 28.9062 35.3667L33.7344 34.0698C34.3746 33.8978 34.9202 33.4786 35.2514 32.9042C35.5824 32.3299 35.6719 31.6476 35.5 31.0073ZM26.6094 7.50737L27.5938 11.1167L22.7656 12.4136L21.7812 8.80425L26.6094 7.50737ZM19 7.94487V26.6948H14V7.94487H19ZM11.5 7.94487V11.6949H6.5V7.94487H11.5ZM19 32.9448H14V29.1948H19V32.9448ZM33.0938 31.6479L28.2656 32.9448L27.2812 29.3198L32.125 28.0229L33.0938 31.6479Z" fill="#B1B1B1"/>
</svg>
