<svg width="116" height="20" viewBox="0 0 116 20" fill="none" xmlns="http://www.w3.org/2000/svg">
<path d="M9.07088 0.833047C9.41462 0.0165876 10.5854 0.0165887 10.9291 0.833049L12.9579 5.65194C13.1029 5.99614 13.4306 6.23131 13.8067 6.2611L19.0727 6.67818C19.9649 6.74885 20.3267 7.84884 19.6469 8.4241L15.6348 11.8194C15.3482 12.0619 15.223 12.4425 15.3106 12.805L16.5363 17.8817C16.744 18.7418 15.7969 19.4217 15.033 18.9608L10.5245 16.2403C10.2025 16.0459 9.7975 16.0459 9.47548 16.2403L4.96699 18.9608C4.20311 19.4217 3.25596 18.7418 3.46363 17.8817L4.68942 12.805C4.77698 12.4425 4.65182 12.0619 4.36526 11.8194L0.353062 8.4241C-0.326718 7.84884 0.035068 6.74885 0.927291 6.67818L6.19336 6.2611C6.5695 6.23131 6.89716 5.99614 7.04207 5.65194L9.07088 0.833047Z" fill="#E48D8B"/>
<path d="M33.0709 0.833047C33.4146 0.0165876 34.5854 0.0165887 34.9291 0.833049L36.9579 5.65194C37.1029 5.99614 37.4306 6.23131 37.8067 6.2611L43.0727 6.67818C43.9649 6.74885 44.3267 7.84884 43.6469 8.4241L39.6348 11.8194C39.3482 12.0619 39.223 12.4425 39.3106 12.805L40.5363 17.8817C40.744 18.7418 39.7969 19.4217 39.033 18.9608L34.5245 16.2403C34.2025 16.0459 33.7975 16.0459 33.4755 16.2403L28.967 18.9608C28.2031 19.4217 27.256 18.7418 27.4636 17.8817L28.6894 12.805C28.777 12.4425 28.6518 12.0619 28.3653 11.8194L24.3531 8.4241C23.6733 7.84884 24.0351 6.74885 24.9273 6.67818L30.1934 6.2611C30.5695 6.23131 30.8972 5.99614 31.0421 5.65194L33.0709 0.833047Z" fill="#E48D8B"/>
<path d="M57.0709 0.833047C57.4146 0.0165876 58.5854 0.0165887 58.9291 0.833049L60.9579 5.65194C61.1029 5.99614 61.4305 6.23131 61.8066 6.2611L67.0726 6.67818C67.9649 6.74885 68.3266 7.84884 67.6469 8.4241L63.6348 11.8194C63.3482 12.0619 63.223 12.4425 63.3105 12.805L64.5363 17.8817C64.744 18.7418 63.7969 19.4217 63.033 18.9608L58.5245 16.2403C58.2025 16.0459 57.7975 16.0459 57.4755 16.2403L52.967 18.9608C52.2031 19.4217 51.2559 18.7418 51.4636 17.8817L52.6894 12.805C52.777 12.4425 52.6518 12.0619 52.3652 11.8194L48.353 8.4241C47.6733 7.84884 48.035 6.74885 48.9273 6.67818L54.1933 6.2611C54.5695 6.23131 54.8971 5.99614 55.042 5.65194L57.0709 0.833047Z" fill="#E48D8B"/>
<path d="M81.0707 0.833047C81.4144 0.0165876 82.5852 0.0165887 82.9289 0.833049L84.9577 5.65194C85.1027 5.99614 85.4303 6.23131 85.8064 6.2611L91.0724 6.67818C91.9647 6.74885 92.3264 7.84884 91.6467 8.4241L87.6346 11.8194C87.348 12.0619 87.2228 12.4425 87.3103 12.805L88.5361 17.8817C88.7438 18.7418 87.7967 19.4217 87.0328 18.9608L82.5243 16.2403C82.2023 16.0459 81.7973 16.0459 81.4753 16.2403L76.9668 18.9608C76.2029 19.4217 75.2557 18.7418 75.4634 17.8817L76.6892 12.805C76.7768 12.4425 76.6516 12.0619 76.365 11.8194L72.3528 8.4241C71.6731 7.84884 72.0348 6.74885 72.9271 6.67818L78.1931 6.2611C78.5693 6.23131 78.8969 5.99614 79.0418 5.65194L81.0707 0.833047Z" fill="#E48D8B"/>
<path d="M105.071 0.612344C105.414 -0.204116 106.585 -0.204114 106.929 0.612346L108.958 5.43124C109.103 5.77544 109.43 6.01061 109.806 6.0404L115.072 6.45748C115.965 6.52815 116.326 7.62814 115.647 8.2034L111.635 11.5987C111.348 11.8412 111.223 12.2218 111.31 12.5843L112.536 17.661C112.744 18.5211 111.797 19.201 111.033 18.7401L106.524 16.0196C106.202 15.8252 105.797 15.8252 105.475 16.0196L100.967 18.7401C100.203 19.201 99.256 18.5211 99.4637 17.661L100.689 12.5843C100.777 12.2218 100.652 11.8412 100.365 11.5987L96.3531 8.2034C95.6733 7.62814 96.0351 6.52815 96.9273 6.45748L102.193 6.0404C102.569 6.01061 102.897 5.77544 103.042 5.43124L105.071 0.612344Z" fill="#E48D8B"/>
</svg>
