<svg width="40" height="40" viewBox="0 0 40 40" fill="none" xmlns="http://www.w3.org/2000/svg">
<path d="M36.5 13.9279V32.6779C36.5 33.3409 36.2366 33.9768 35.7677 34.4457C35.2989 34.9146 34.663 35.1779 34 35.1779H6.5C5.83696 35.1779 5.20107 34.9146 4.73224 34.4457C4.26339 33.9768 4 33.3409 4 32.6779V13.9279C4 13.2649 4.26339 12.629 4.73224 12.1602C5.20107 11.6913 5.83696 11.4279 6.5 11.4279H17.2344L11.8594 6.06855C11.6601 5.82569 11.5582 5.51735 11.5736 5.20354C11.589 4.88972 11.7206 4.59286 11.9428 4.37069C12.1649 4.14852 12.4618 4.01694 12.7756 4.00152C13.0894 3.98611 13.3977 4.08797 13.6406 4.2873L20.25 10.9123L26.8594 4.2873C27.1023 4.08797 27.4106 3.98611 27.7244 4.00152C28.0382 4.01694 28.3351 4.14852 28.5572 4.37069C28.7794 4.59286 28.911 4.88972 28.9264 5.20354C28.9419 5.51735 28.84 5.82569 28.6406 6.06855L23.2656 11.4279H34C34.663 11.4279 35.2989 11.6913 35.7677 12.1602C36.2366 12.629 36.5 13.2649 36.5 13.9279Z" fill="#E48D8B"/>
</svg>
