<svg width="140" height="25" viewBox="0 0 140 25" fill="none" xmlns="http://www.w3.org/2000/svg">
<path d="M43.3078 7.76277H47.2976C47.1751 6.67511 46.8777 5.71025 46.4052 4.86819C45.9327 4.02614 45.329 3.32443 44.594 2.76306C43.8766 2.18414 43.0541 1.74556 42.1267 1.44733C41.2167 1.14911 40.2456 1 39.2131 1C37.7782 1 36.4833 1.25437 35.3284 1.76311C34.191 2.27185 33.2285 2.97357 32.441 3.86826C31.6536 4.76294 31.0499 5.81551 30.63 7.02596C30.21 8.21888 30 9.51704 30 10.9205C30 12.2889 30.21 13.5694 30.63 14.7624C31.0499 15.9377 31.6536 16.964 32.441 17.8411C33.2285 18.7183 34.191 19.4112 35.3284 19.92C36.4833 20.4112 37.7782 20.6568 39.2131 20.6568C40.3681 20.6568 41.4268 20.4814 42.3892 20.1305C43.3516 19.7796 44.1915 19.2709 44.909 18.6042C45.6265 17.9376 46.2039 17.1306 46.6414 16.1834C47.0789 15.236 47.3501 14.1747 47.4551 12.9993H43.4653C43.3078 14.2624 42.8704 15.2799 42.1529 16.0518C41.453 16.8236 40.4731 17.2096 39.2131 17.2096C38.2857 17.2096 37.4982 17.0341 36.8508 16.6834C36.2033 16.3149 35.6784 15.8325 35.2759 15.236C34.8734 14.6396 34.5759 13.9729 34.3834 13.2361C34.2084 12.4818 34.1209 11.7099 34.1209 10.9205C34.1209 10.096 34.2084 9.29772 34.3834 8.52589C34.5759 7.75399 34.8734 7.06983 35.2759 6.47337C35.6784 5.85937 36.2033 5.37694 36.8508 5.02609C37.4982 4.65768 38.2857 4.47348 39.2131 4.47348C39.7206 4.47348 40.2018 4.5612 40.6568 4.73662C41.1293 4.89452 41.5492 5.12257 41.9167 5.4208C42.2842 5.71903 42.5904 6.06988 42.8353 6.47337C43.0804 6.85931 43.2378 7.28911 43.3078 7.76277ZM53.1828 13.4467C53.1828 12.9028 53.2353 12.3678 53.3403 11.8415C53.4452 11.3152 53.6202 10.8503 53.8652 10.4468C54.1277 10.0433 54.469 9.71879 54.8889 9.47316C55.3089 9.21005 55.8339 9.0785 56.4638 9.0785C57.0938 9.0785 57.6188 9.21005 58.0387 9.47316C58.4762 9.71879 58.8174 10.0433 59.0624 10.4468C59.3248 10.8503 59.5086 11.3152 59.6136 11.8415C59.7186 12.3678 59.7711 12.9028 59.7711 13.4467C59.7711 13.9905 59.7186 14.5255 59.6136 15.0518C59.5086 15.5606 59.3248 16.0255 59.0624 16.4465C58.8174 16.85 58.4762 17.1745 58.0387 17.4201C57.6188 17.6657 57.0938 17.7885 56.4638 17.7885C55.8339 17.7885 55.3089 17.6657 54.8889 17.4201C54.469 17.1745 54.1277 16.85 53.8652 16.4465C53.6202 16.0255 53.4452 15.5606 53.3403 15.0518C53.2353 14.5255 53.1828 13.9905 53.1828 13.4467ZM49.4555 13.4467C49.4555 14.5344 49.6218 15.5167 49.9542 16.3938C50.2867 17.271 50.7592 18.0254 51.3716 18.6569C51.9841 19.2709 52.719 19.7446 53.5765 20.0779C54.4339 20.4112 55.3963 20.5779 56.4638 20.5779C57.5312 20.5779 58.4936 20.4112 59.3511 20.0779C60.2261 19.7446 60.9697 19.2709 61.5823 18.6569C62.1947 18.0254 62.6672 17.271 62.9996 16.3938C63.3321 15.5167 63.4984 14.5344 63.4984 13.4467C63.4984 12.359 63.3321 11.3766 62.9996 10.4995C62.6672 9.60481 62.1947 8.85045 61.5823 8.23643C60.9697 7.60488 60.2261 7.12246 59.3511 6.78914C58.4936 6.43828 57.5312 6.26286 56.4638 6.26286C55.3963 6.26286 54.4339 6.43828 53.5765 6.78914C52.719 7.12246 51.9841 7.60488 51.3716 8.23643C50.7592 8.85045 50.2867 9.60481 49.9542 10.4995C49.6218 11.3766 49.4555 12.359 49.4555 13.4467ZM78.6522 20.2357V6.63125H74.9249V13.7624C74.9249 15.1483 74.6975 16.1482 74.2425 16.7623C73.7875 17.3587 73.0526 17.6569 72.0377 17.6569C71.1452 17.6569 70.524 17.385 70.174 16.8412C69.824 16.2799 69.6491 15.4377 69.6491 14.315V6.63125H65.9218V14.9992C65.9218 15.8412 65.9918 16.6132 66.1318 17.3148C66.2893 17.9991 66.5517 18.5867 66.9192 19.0779C67.2868 19.5516 67.7854 19.92 68.4154 20.1831C69.0629 20.4462 69.8853 20.5779 70.8827 20.5779C71.6702 20.5779 72.4402 20.4024 73.1926 20.0516C73.945 19.7007 74.5575 19.1305 75.03 18.3411H75.1088V20.2357H78.6522ZM81.4811 6.63125V20.2357H85.2084V14.1046C85.2084 13.4905 85.2696 12.9204 85.3921 12.3941C85.5146 11.8678 85.7158 11.4117 85.9958 11.0258C86.2933 10.6223 86.6783 10.3064 87.1508 10.0784C87.6233 9.85034 88.2007 9.73636 88.8832 9.73636C89.1107 9.73636 89.3469 9.75393 89.5919 9.78898C89.8368 9.80655 90.0468 9.83286 90.2218 9.86791V6.39443C89.9243 6.30671 89.6531 6.26286 89.4081 6.26286C88.9357 6.26286 88.4807 6.33302 88.0432 6.47337C87.6057 6.61371 87.1945 6.81545 86.8095 7.07859C86.4245 7.32419 86.0834 7.6312 85.7859 7.99959C85.4884 8.35045 85.2522 8.7364 85.0772 9.15743H85.0247V6.63125H81.4811ZM94.5704 15.8149H91.0269C91.0619 16.7271 91.2631 17.4902 91.6306 18.1043C92.0156 18.7007 92.4968 19.1831 93.0743 19.5516C93.6693 19.92 94.3429 20.1831 95.0954 20.341C95.8478 20.4988 96.6177 20.5779 97.4053 20.5779C98.1752 20.5779 98.9276 20.4988 99.6626 20.341C100.415 20.2007 101.08 19.9463 101.657 19.5779C102.235 19.2094 102.699 18.727 103.048 18.1306C103.417 17.5166 103.6 16.7623 103.6 15.8675C103.6 15.236 103.478 14.7097 103.232 14.2887C102.987 13.8501 102.663 13.4905 102.261 13.2098C101.859 12.9116 101.395 12.6748 100.87 12.4993C100.363 12.3239 99.8376 12.1748 99.2952 12.052C98.7702 11.9292 98.2539 11.8152 97.7464 11.7099C97.239 11.6047 96.784 11.4906 96.3815 11.3678C95.9966 11.2275 95.6816 11.0521 95.4366 10.8416C95.1916 10.631 95.0691 10.3591 95.0691 10.0258C95.0691 9.74509 95.1391 9.52577 95.2791 9.36791C95.4191 9.19248 95.5854 9.06093 95.7778 8.97326C95.9878 8.88549 96.2154 8.83287 96.4603 8.8153C96.7053 8.78025 96.9328 8.76271 97.1427 8.76271C97.8077 8.76271 98.3852 8.89433 98.8751 9.15743C99.3651 9.40306 99.6363 9.88548 99.6888 10.6047H103.232C103.162 9.76267 102.944 9.06966 102.576 8.52589C102.226 7.96452 101.78 7.51717 101.238 7.18386C100.695 6.85054 100.074 6.61371 99.3739 6.47337C98.6914 6.33302 97.9827 6.26286 97.2477 6.26286C96.5128 6.26286 95.7954 6.33302 95.0954 6.47337C94.3954 6.59616 93.7654 6.82423 93.2055 7.15753C92.6455 7.47331 92.1906 7.91189 91.8406 8.47326C91.5081 9.03462 91.3418 9.75393 91.3418 10.631C91.3418 11.2275 91.4643 11.7362 91.7094 12.1573C91.9544 12.5608 92.278 12.9028 92.6805 13.1835C93.083 13.4467 93.5379 13.6659 94.0454 13.8414C94.5704 13.9992 95.1041 14.1396 95.6466 14.2624C96.9765 14.5431 98.009 14.8238 98.7439 15.1044C99.4964 15.3851 99.8725 15.8062 99.8725 16.3675C99.8725 16.7008 99.7938 16.9815 99.6363 17.2096C99.4789 17.4201 99.2776 17.5956 99.0326 17.7359C98.8051 17.8587 98.5427 17.9552 98.2452 18.0254C97.9652 18.078 97.694 18.1043 97.4315 18.1043C97.064 18.1043 96.7053 18.0604 96.3553 17.9728C96.0228 17.885 95.7253 17.7534 95.4629 17.578C95.2003 17.385 94.9817 17.1482 94.8067 16.8675C94.6491 16.5693 94.5704 16.2184 94.5704 15.8149ZM114.916 11.973H108.852C108.87 11.7099 108.923 11.4117 109.01 11.0784C109.114 10.7451 109.282 10.4293 109.509 10.131C109.753 9.83286 110.069 9.58723 110.454 9.39422C110.856 9.18374 111.355 9.0785 111.949 9.0785C112.859 9.0785 113.533 9.32413 113.971 9.81529C114.426 10.3064 114.741 11.0258 114.916 11.973ZM108.852 14.3413H118.643C118.713 13.2887 118.626 12.28 118.381 11.3152C118.136 10.3503 117.734 9.49073 117.173 8.7364C116.631 7.98206 115.931 7.3856 115.073 6.94702C114.216 6.49091 113.21 6.26286 112.054 6.26286C111.022 6.26286 110.077 6.44705 109.22 6.81545C108.38 7.18386 107.654 7.6926 107.041 8.34169C106.429 8.97326 105.956 9.72752 105.624 10.6047C105.291 11.4819 105.125 12.4291 105.125 13.4467C105.125 14.4992 105.283 15.4641 105.598 16.3412C105.93 17.2184 106.394 17.9728 106.989 18.6042C107.583 19.2358 108.31 19.727 109.167 20.0779C110.025 20.4112 110.987 20.5779 112.054 20.5779C113.595 20.5779 114.907 20.227 115.992 19.5253C117.077 18.8235 117.882 17.6569 118.407 16.0255H115.126C115.003 16.4465 114.67 16.85 114.128 17.2359C113.585 17.6043 112.938 17.7885 112.186 17.7885C111.136 17.7885 110.331 17.5166 109.771 16.9728C109.211 16.4289 108.905 15.5518 108.852 14.3413ZM120.959 1.44733V20.2357H124.686V1.44733H120.959ZM134.314 21.9199L139.984 6.63125H136.125L133.16 15.9465H133.107L130.035 6.63125H126.073L130.823 19.3937C130.928 19.6568 130.98 19.9375 130.98 20.2357C130.98 20.6392 130.858 21.0077 130.613 21.341C130.386 21.6743 130.027 21.8673 129.537 21.9199C129.169 21.9374 128.802 21.9286 128.435 21.8936C128.067 21.8584 127.708 21.8234 127.358 21.7882V24.867C127.744 24.9022 128.119 24.9285 128.487 24.946C128.872 24.9811 129.257 24.9986 129.642 24.9986C130.919 24.9986 131.917 24.7618 132.635 24.2881C133.351 23.8145 133.912 23.025 134.314 21.9199Z" fill="#333B4A"/>
<path d="M25.6734 10.8072L9.33569 21.6144V0L25.6734 10.8072Z" fill="#017CFF"/>
<path d="M16.3377 10.8072L0 21.6144V0L16.3377 10.8072Z" fill="#E48D8B"/>
</svg>
